<svg xmlns="http://www.w3.org/2000/svg" xmlns:xlink="http://www.w3.org/1999/xlink" width="168.71" height="138.8" viewBox="0 0 168.71 138.8">
  <defs>
    <clipPath id="clip-path">
      <rect id="Retângulo_3" data-name="Retângulo 3" width="168.71" height="138.8" transform="translate(1016.66 906.9)"/>
    </clipPath>
  </defs>
  <g id="Grupo_16" data-name="Grupo 16" transform="translate(-1016.66 -906.9)">
    <g id="Grupo_8" data-name="Grupo 8">
      <g id="Grupo_7" data-name="Grupo 7" clip-path="url(#clip-path)">
        <path id="Caminho_41" data-name="Caminho 41" d="M1060.43,955.683v57.7h5.695v15.053h-5.695v15.542h-20.006v-15.542h-23.768v-15.053l17.281-57.7Zm-20.006,57.7V975.806l-8.838,37.572Z"/>
        <path id="Caminho_42" data-name="Caminho 42" d="M1108.463,993.883a14.744,14.744,0,0,1,6.784,5.866q2.376,3.9,2.377,18.578,0,10.7-1.881,15.769a16.282,16.282,0,0,1-7.329,8.32q-5.448,3.246-14.608,3.246-8.913,0-14.113-3.109a17.866,17.866,0,0,1-7.452-8.239q-2.254-5.127-2.253-17.079a75.785,75.785,0,0,1,1.114-13.912q1.114-5.892,7.007-9.44a12.3,12.3,0,0,1-5.571-6.239,27.482,27.482,0,0,1-1.857-10.872q0-11.391,5.744-17.084t17.183-5.7q13.221,0,18.272,6.048t5.051,17.276q0,7.14-1.659,10.3t-6.809,6.267m-10.844,17.751q0-5.073-.94-6.735a3.171,3.171,0,0,0-2.972-1.663,2.987,2.987,0,0,0-2.848,1.608q-.866,1.608-.866,6.79v11.451q0,5.727.966,7.363a3.28,3.28,0,0,0,3.046,1.636,2.838,2.838,0,0,0,2.871-1.664q.744-1.661.743-7.5Zm-.4-36.7q0-4.469-.719-5.915a2.772,2.772,0,0,0-2.748-1.446,2.645,2.645,0,0,0-2.674,1.554,16.268,16.268,0,0,0-.693,5.807v6.708q0,3.981.793,5.508a2.771,2.771,0,0,0,2.674,1.527,2.66,2.66,0,0,0,2.674-1.5q.691-1.5.693-6.189Z"/>
        <path id="Caminho_43" data-name="Caminho 43" d="M1150.953,1007.375l1.62-2.089.977.784-1.722,2.007Z"/>
        <path id="Caminho_44" data-name="Caminho 44" d="M1155.455,1000.92l2.474-4.741,1.567.85-2.707,4.616Z"/>
        <path id="Caminho_45" data-name="Caminho 45" d="M1159.836,991.362l1.45-5.148,2.216.663-1.7,5.073Z"/>
        <path id="Caminho_46" data-name="Caminho 46" d="M1162.16,981.141l.367-5.338,2.833.241-.631,5.316Z"/>
        <path id="Caminho_47" data-name="Caminho 47" d="M1162.356,970.691l-.717-5.306,3.35-.4.454,5.336Z"/>
        <path id="Caminho_48" data-name="Caminho 48" d="M1160.441,960.453l-1.789-5.044,3.7-1.244,1.537,5.129Z"/>
        <path id="Caminho_49" data-name="Caminho 49" d="M1156.484,950.86l-2.783-4.569,3.825-2.244,2.554,4.7Z"/>
        <path id="Caminho_50" data-name="Caminho 50" d="M1150.67,942.308l-3.652-3.907,3.682-3.331,3.456,4.087Z"/>
        <path id="Caminho_51" data-name="Caminho 51" d="M1143.269,935.137l-4.368-3.087,3.244-4.435,4.212,3.3Z"/>
        <path id="Caminho_52" data-name="Caminho 52" d="M1134.6,929.637,1129.7,927.5l2.491-5.485,4.8,2.373Z"/>
        <path id="Caminho_53" data-name="Caminho 53" d="M1125.03,926.034l-5.24-1.079,1.428-6.4,5.182,1.339Z"/>
        <path id="Caminho_54" data-name="Caminho 54" d="M1114.906,924.474l-2.676-.044-.5-.009-.244,0h.065l-.06,0-.119,0c-.313.012-.606.021-.856.029l-.836.029-.126-7.086.837.013.857.013.467.009.244.016.5.033,2.672.177Z"/>
        <path id="Caminho_55" data-name="Caminho 55" d="M1104.792,924.983l-5.241,1.092-1.431-7.482,5.291-.83Z"/>
        <path id="Caminho_56" data-name="Caminho 56" d="M1094.992,927.536l-4.9,2.144-3.14-7.519,5.006-1.9Z"/>
        <path id="Caminho_57" data-name="Caminho 57" d="M1085.954,932.029l-4.363,3.1-4.909-7.156,4.513-2.88Z"/>
        <path id="Caminho_58" data-name="Caminho 58" d="M1077.969,938.325l-6.291-6.354-3.317,3.051,6.487,6.488,1.27-1.3,0,0Z"/>
        <path id="Caminho_59" data-name="Caminho 59" d="M1185.363,977.127l-.009-.505-.014-.158-.028-.318-.111-1.272q-.224-2.547-.451-5.14-.525-2.909-1.058-5.862a46.271,46.271,0,0,0-1.467-5.647q-.411-1.387-.823-2.782c-.3-.92-.706-1.806-1.056-2.713l-1.1-2.7a21.236,21.236,0,0,0-1.206-2.66q-1.36-2.583-2.726-5.184-1.6-2.453-3.211-4.911a21.643,21.643,0,0,0-1.741-2.355l-1.834-2.282a70.581,70.581,0,0,0-37.707-23.693l-5.183-1.116c-1.729-.259-3.457-.411-5.151-.612-.85-.081-1.688-.222-2.531-.248s-1.682-.022-2.516-.03c-1.683,0-3.262-.079-4.96-.006a71.949,71.949,0,0,0-9.29,1.077c-1.495.233-2.935.631-4.359.93-1.4.4-2.789.743-4.117,1.18a67.456,67.456,0,0,0-13.829,6.2,71.635,71.635,0,0,0-9.461,6.706c-2.421,2.1-4.213,3.864-5.383,5.111l-1.775,1.925s.674-.613,1.938-1.756,3.207-2.717,5.77-4.57a70.245,70.245,0,0,1,9.817-5.712,68.5,68.5,0,0,1,13.775-4.8c1.294-.314,2.639-.531,3.993-.8,1.374-.17,2.756-.436,4.184-.537,1.426-.136,2.872-.261,4.312-.28,1.412-.085,2.986-.031,4.546-.01,1.427.057,3.01.263,4.53.387q1.152.108,2.319.213c.774.088,1.54.288,2.315.426,1.545.32,3.113.582,4.672.946l4.638,1.411a67.87,67.87,0,0,1,17.618,9.137,66.417,66.417,0,0,1,14.084,14.51l1.432,2.086a16.522,16.522,0,0,1,1.346,2.134l2.436,4.4q.992,2.3,1.98,4.583a15.847,15.847,0,0,1,.85,2.326l.752,2.349c.238.784.535,1.548.724,2.34l.506,2.388a35.7,35.7,0,0,1,.856,4.67q.259,2.251.516,4.476.034,2.6.069,5.159l.017,1.278,0,.317,0,.159c-.018-.637-.008-.136-.014-.26l-.005.074-.045.573c-.058.763-.116,1.519-.173,2.275-.058,1.513-.377,2.986-.557,4.448s-.59,2.875-.857,4.284c-.3,1.405-.771,2.75-1.129,4.1a59.106,59.106,0,0,1-6.606,14.144,64.329,64.329,0,0,1-8.173,10.224l-2.034,1.952c-.648.634-1.354,1.156-1.984,1.709a37.843,37.843,0,0,1-3.032,2.375l-4.9-7.225-9.474,28.1,29.608,1.612-5.378-7.934c.087-.075.169-.143.257-.216,1.37-1.165,2.919-2.411,4.442-3.95.767-.762,1.61-1.506,2.393-2.372l2.434-2.673a76.783,76.783,0,0,0,9.451-13.7,74.167,74.167,0,0,0,6.922-18.277c.334-1.7.772-3.4,1.014-5.155.215-1.761.566-3.522.657-5.329s.324-3.62.273-5.462v-3.465Z"/>
        <path id="Caminho_60" data-name="Caminho 60" d="M1130.571,953.991v10.028a7.836,7.836,0,0,1,9.3-2.289,5.338,5.338,0,0,1,2.185,1.711,6.208,6.208,0,0,1,1.005,2.308,20.6,20.6,0,0,1,.27,3.926v11.589h-5.227V970.828a15.449,15.449,0,0,0-.3-3.943,2.585,2.585,0,0,0-1.051-1.33,3.373,3.373,0,0,0-1.889-.494,4.337,4.337,0,0,0-2.325.631,3.66,3.66,0,0,0-1.5,1.908,11.425,11.425,0,0,0-.474,3.768v9.9h-5.228V953.991Z"/>
      </g>
    </g>
  </g>
</svg>
