<svg xmlns="http://www.w3.org/2000/svg" xmlns:xlink="http://www.w3.org/1999/xlink" width="166.473" height="138.8" viewBox="0 0 166.473 138.8">
  <defs>
    <clipPath id="clip-path">
      <rect id="Retângulo_1" data-name="Retângulo 1" width="166.473" height="138.8" transform="translate(549.917 906.9)"/>
    </clipPath>
  </defs>
  <g id="Grupo_14" data-name="Grupo 14" transform="translate(-549.917 -906.9)">
    <g id="Grupo_2" data-name="Grupo 2">
      <g id="Grupo_1" data-name="Grupo 1" clip-path="url(#clip-path)">
        <path id="Caminho_1" data-name="Caminho 1" d="M587.637,956.249v89.413H565.326V997.727q0-10.383-.5-12.483a4.665,4.665,0,0,0-2.733-3.176q-2.238-1.074-9.969-1.077h-2.209V970.567q16.179-3.482,24.575-14.318Z"/>
        <path id="Caminho_2" data-name="Caminho 2" d="M644.41,1030.42v15.242h-49.1l.014-12.757q21.813-35.676,25.929-44.154t4.115-13.227a9.609,9.609,0,0,0-1.246-5.44,4.3,4.3,0,0,0-3.788-1.795,4.164,4.164,0,0,0-3.788,1.988q-1.243,1.991-1.244,7.9v8.505H595.314v-3.259a70.889,70.889,0,0,1,.773-11.847,20.8,20.8,0,0,1,3.81-8.532,19.128,19.128,0,0,1,7.9-6.352,28.661,28.661,0,0,1,11.654-2.154q13.308,0,20.129,6.6a22.26,22.26,0,0,1,6.82,16.707,39.751,39.751,0,0,1-3.838,16.235q-3.839,8.562-22.617,36.34Z"/>
        <path id="Caminho_3" data-name="Caminho 3" d="M681.971,1007.375l1.62-2.089.977.784-1.722,2.007Z"/>
        <path id="Caminho_4" data-name="Caminho 4" d="M686.472,1000.92l2.473-4.741,1.568.85-2.707,4.616Z"/>
        <path id="Caminho_5" data-name="Caminho 5" d="M690.854,991.362l1.45-5.148,2.216.663-1.7,5.073Z"/>
        <path id="Caminho_6" data-name="Caminho 6" d="M693.178,981.141l.367-5.338,2.833.241-.631,5.316Z"/>
        <path id="Caminho_7" data-name="Caminho 7" d="M693.374,970.691l-.717-5.306,3.35-.4.454,5.336Z"/>
        <path id="Caminho_8" data-name="Caminho 8" d="M691.459,960.453l-1.789-5.044,3.7-1.244,1.537,5.129Z"/>
        <path id="Caminho_9" data-name="Caminho 9" d="M687.5,950.86l-2.783-4.569,3.825-2.244,2.554,4.7Z"/>
        <path id="Caminho_10" data-name="Caminho 10" d="M681.688,942.308l-3.652-3.908,3.682-3.33,3.456,4.086Z"/>
        <path id="Caminho_11" data-name="Caminho 11" d="M674.287,935.137l-4.368-3.087,3.244-4.435,4.212,3.3Z"/>
        <path id="Caminho_12" data-name="Caminho 12" d="M665.62,929.637l-4.906-2.132,2.491-5.485,4.8,2.373Z"/>
        <path id="Caminho_13" data-name="Caminho 13" d="M656.047,926.034l-5.24-1.079,1.428-6.4,5.182,1.339Z"/>
        <path id="Caminho_14" data-name="Caminho 14" d="M645.924,924.474l-2.676-.044-.5-.009-.244,0h.065l-.06,0-.119,0c-.313.012-.606.021-.856.029l-.836.029-.126-7.086.837.013.857.013.467.008.244.017.5.033,2.672.177Z"/>
        <path id="Caminho_15" data-name="Caminho 15" d="M635.81,924.983l-5.241,1.092-1.431-7.482,5.291-.83Z"/>
        <path id="Caminho_16" data-name="Caminho 16" d="M626.01,927.536l-4.9,2.144-3.14-7.519,5.006-1.9Z"/>
        <path id="Caminho_17" data-name="Caminho 17" d="M616.972,932.029l-4.363,3.1-4.909-7.156,4.513-2.88Z"/>
        <path id="Caminho_18" data-name="Caminho 18" d="M608.987,938.325l-6.291-6.354-3.317,3.051,6.487,6.488,1.27-1.3,0,0Z"/>
        <path id="Caminho_19" data-name="Caminho 19" d="M716.381,977.127l-.009-.506-.014-.157-.028-.318-.111-1.272q-.223-2.547-.451-5.14-.525-2.909-1.058-5.862a46.344,46.344,0,0,0-1.467-5.648q-.411-1.386-.823-2.781c-.3-.92-.706-1.806-1.056-2.713l-1.1-2.7a21.236,21.236,0,0,0-1.206-2.66q-1.36-2.583-2.726-5.184-1.6-2.453-3.211-4.911a21.643,21.643,0,0,0-1.741-2.355l-1.834-2.282a70.581,70.581,0,0,0-37.707-23.693l-5.183-1.116c-1.729-.259-3.457-.411-5.152-.612-.849-.081-1.687-.222-2.53-.248s-1.682-.022-2.516-.03c-1.683,0-3.263-.079-4.96-.006a71.947,71.947,0,0,0-9.29,1.077c-1.495.233-2.935.631-4.359.93-1.4.4-2.789.743-4.117,1.18a67.456,67.456,0,0,0-13.829,6.2,71.7,71.7,0,0,0-9.461,6.706c-2.421,2.1-4.213,3.864-5.383,5.111l-1.775,1.925s.674-.613,1.938-1.756,3.206-2.717,5.77-4.57a70.244,70.244,0,0,1,9.817-5.712,68.5,68.5,0,0,1,13.775-4.8c1.294-.314,2.639-.531,3.993-.8,1.374-.17,2.756-.436,4.184-.537,1.426-.136,2.871-.261,4.312-.28,1.412-.085,2.986-.031,4.546-.01,1.427.057,3.01.263,4.53.387q1.152.108,2.319.213c.774.088,1.54.288,2.315.426,1.545.32,3.113.582,4.672.946l4.637,1.411a67.863,67.863,0,0,1,17.619,9.137,66.414,66.414,0,0,1,14.084,14.51l1.432,2.086a16.509,16.509,0,0,1,1.346,2.134l2.436,4.4q.992,2.3,1.98,4.583a15.861,15.861,0,0,1,.85,2.326l.752,2.349c.238.784.535,1.548.724,2.34l.506,2.388a35.7,35.7,0,0,1,.856,4.67q.259,2.251.516,4.476.035,2.6.069,5.159l.017,1.278,0,.317,0,.159c-.018-.637-.008-.136-.014-.26l-.005.074-.045.573c-.058.763-.116,1.519-.173,2.275-.058,1.513-.377,2.986-.557,4.448s-.59,2.875-.857,4.284c-.295,1.405-.771,2.75-1.129,4.1a59.1,59.1,0,0,1-6.606,14.144,64.332,64.332,0,0,1-8.173,10.224l-2.034,1.952c-.648.634-1.354,1.156-1.984,1.709a37.843,37.843,0,0,1-3.032,2.375l-4.895-7.225-9.474,28.1,29.608,1.612-5.378-7.934c.087-.075.169-.143.257-.216,1.37-1.165,2.919-2.411,4.442-3.95.766-.762,1.61-1.506,2.393-2.372l2.434-2.673a76.783,76.783,0,0,0,9.451-13.7,74.157,74.157,0,0,0,6.922-18.277c.334-1.7.772-3.4,1.014-5.155.215-1.761.566-3.522.657-5.329s.324-3.62.273-5.462v-3.465Z"/>
        <path id="Caminho_20" data-name="Caminho 20" d="M661.589,954.537v10.028a7.836,7.836,0,0,1,9.3-2.289,5.348,5.348,0,0,1,2.185,1.712,6.2,6.2,0,0,1,1.005,2.308,20.606,20.606,0,0,1,.27,3.926v11.589h-5.227V971.375a15.463,15.463,0,0,0-.3-3.944,2.593,2.593,0,0,0-1.051-1.33,3.372,3.372,0,0,0-1.888-.495,4.34,4.34,0,0,0-2.326.633,3.662,3.662,0,0,0-1.5,1.907,11.439,11.439,0,0,0-.474,3.768v9.9h-5.228V954.537Z"/>
      </g>
    </g>
  </g>
</svg>
