<svg xmlns="http://www.w3.org/2000/svg" xmlns:xlink="http://www.w3.org/1999/xlink" width="171.913" height="138.8" viewBox="0 0 171.913 138.8">
  <defs>
    <clipPath id="clip-path">
      <rect id="Retângulo_2" data-name="Retângulo 2" width="171.913" height="138.8" transform="translate(780.423 906.9)"/>
    </clipPath>
  </defs>
  <g id="Grupo_15" data-name="Grupo 15" transform="translate(-771.423 -1196.9)">
    <g id="Grupo_5" data-name="Grupo 5" transform="translate(-9 290)">
      <g id="Grupo_4" data-name="Grupo 4" clip-path="url(#clip-path)">
        <path id="Caminho_21" data-name="Caminho 21" d="M829.519,1030.419v15.243h-49.1l.013-12.758q21.815-35.675,25.93-44.154t4.113-13.226a9.616,9.616,0,0,0-1.244-5.441,4.3,4.3,0,0,0-3.788-1.794,4.164,4.164,0,0,0-3.788,1.988q-1.245,1.991-1.244,7.9v8.505H780.423v-3.259a70.88,70.88,0,0,1,.773-11.847,20.8,20.8,0,0,1,3.81-8.532,19.114,19.114,0,0,1,7.9-6.352,28.658,28.658,0,0,1,11.652-2.154q13.311,0,20.131,6.6a22.257,22.257,0,0,1,6.82,16.706,39.759,39.759,0,0,1-3.838,16.236q-3.839,8.559-22.617,36.338Z"/>
        <path id="Caminho_22" data-name="Caminho 22" d="M881.433,956.25v58.431h6.352v15.241h-6.352v15.74H859.121v-15.74H832.613v-15.241l19.274-58.431Zm-22.312,58.431V976.628l-9.857,38.053Z"/>
        <path id="Caminho_23" data-name="Caminho 23" d="M917.917,1007.375l1.62-2.089.977.784-1.722,2.007Z"/>
        <path id="Caminho_24" data-name="Caminho 24" d="M922.418,1000.92l2.473-4.741,1.568.85-2.707,4.616Z"/>
        <path id="Caminho_25" data-name="Caminho 25" d="M926.8,991.362l1.45-5.148,2.216.663-1.7,5.073Z"/>
        <path id="Caminho_26" data-name="Caminho 26" d="M929.124,981.141l.367-5.338,2.833.241-.631,5.316Z"/>
        <path id="Caminho_27" data-name="Caminho 27" d="M929.32,970.691l-.717-5.306,3.35-.4.454,5.336Z"/>
        <path id="Caminho_28" data-name="Caminho 28" d="M927.405,960.453l-1.788-5.044,3.7-1.244,1.537,5.129Z"/>
        <path id="Caminho_29" data-name="Caminho 29" d="M923.448,950.86l-2.783-4.569,3.825-2.244,2.554,4.7Z"/>
        <path id="Caminho_30" data-name="Caminho 30" d="M917.634,942.308l-3.652-3.908,3.682-3.33,3.456,4.086Z"/>
        <path id="Caminho_31" data-name="Caminho 31" d="M910.233,935.137l-4.368-3.087,3.244-4.435,4.211,3.3Z"/>
        <path id="Caminho_32" data-name="Caminho 32" d="M901.566,929.637,896.66,927.5l2.491-5.485,4.8,2.373Z"/>
        <path id="Caminho_33" data-name="Caminho 33" d="M891.993,926.034l-5.24-1.079,1.428-6.4,5.182,1.339Z"/>
        <path id="Caminho_34" data-name="Caminho 34" d="M881.87,924.474l-2.677-.044-.5-.009-.243,0h.065l-.06,0-.12,0c-.313.012-.606.021-.856.029l-.836.029-.126-7.086.837.013.857.013.468.008.243.017.5.033,2.673.177Z"/>
        <path id="Caminho_35" data-name="Caminho 35" d="M871.756,924.983l-5.241,1.092-1.431-7.482,5.291-.83Z"/>
        <path id="Caminho_36" data-name="Caminho 36" d="M861.956,927.536l-4.9,2.144-3.14-7.519,5.006-1.9Z"/>
        <path id="Caminho_37" data-name="Caminho 37" d="M852.918,932.029l-4.363,3.1-4.909-7.156,4.513-2.88Z"/>
        <path id="Caminho_38" data-name="Caminho 38" d="M844.933,938.325l-6.291-6.354-3.317,3.051,6.487,6.488,1.27-1.3,0,0Z"/>
        <path id="Caminho_39" data-name="Caminho 39" d="M952.327,977.127l-.009-.506-.014-.157-.028-.318-.111-1.272q-.225-2.547-.451-5.14-.525-2.909-1.058-5.862a46.146,46.146,0,0,0-1.468-5.648q-.41-1.386-.823-2.781c-.3-.92-.705-1.806-1.055-2.713l-1.1-2.7a21.227,21.227,0,0,0-1.206-2.66q-1.36-2.583-2.726-5.184-1.6-2.453-3.211-4.911a21.643,21.643,0,0,0-1.741-2.355l-1.834-2.282a70.581,70.581,0,0,0-37.707-23.693l-5.183-1.116c-1.729-.259-3.457-.411-5.152-.612-.849-.081-1.688-.222-2.53-.248s-1.682-.022-2.516-.03c-1.683,0-3.263-.079-4.96-.006a71.948,71.948,0,0,0-9.29,1.077c-1.495.233-2.935.631-4.359.93-1.4.4-2.789.743-4.117,1.18a67.456,67.456,0,0,0-13.829,6.2,71.632,71.632,0,0,0-9.461,6.706c-2.421,2.1-4.213,3.864-5.383,5.111l-1.775,1.925s.674-.613,1.938-1.756,3.206-2.717,5.77-4.57a70.245,70.245,0,0,1,9.817-5.712,68.5,68.5,0,0,1,13.775-4.8c1.294-.314,2.639-.531,3.993-.8,1.374-.17,2.756-.436,4.184-.537,1.426-.136,2.871-.261,4.312-.28,1.412-.085,2.986-.031,4.546-.01,1.426.057,3.01.263,4.53.387q1.152.108,2.318.213c.775.088,1.54.288,2.316.426,1.545.32,3.113.582,4.672.946l4.637,1.411a67.841,67.841,0,0,1,17.618,9.137,66.4,66.4,0,0,1,14.085,14.51l1.432,2.086a16.509,16.509,0,0,1,1.346,2.134q1.219,2.2,2.435,4.4l1.981,4.583a15.861,15.861,0,0,1,.85,2.326l.752,2.349c.237.784.535,1.548.724,2.34l.506,2.388a35.7,35.7,0,0,1,.856,4.67q.259,2.251.516,4.476.035,2.6.069,5.159l.017,1.278,0,.317,0,.159c-.018-.637-.008-.136-.014-.26l-.005.074-.045.573c-.058.763-.116,1.519-.173,2.275-.058,1.513-.377,2.986-.558,4.448s-.589,2.875-.856,4.284c-.295,1.405-.771,2.75-1.129,4.1a59.1,59.1,0,0,1-6.606,14.144,64.329,64.329,0,0,1-8.173,10.224l-2.034,1.952c-.648.634-1.354,1.156-1.984,1.709a37.853,37.853,0,0,1-3.032,2.375l-4.9-7.225-9.474,28.1,29.608,1.612-5.378-7.934c.087-.075.169-.143.257-.216,1.37-1.165,2.919-2.411,4.442-3.95.766-.762,1.61-1.506,2.393-2.372l2.434-2.673a76.776,76.776,0,0,0,9.451-13.7,74.2,74.2,0,0,0,6.922-18.277c.334-1.7.772-3.4,1.014-5.155.215-1.761.566-3.522.657-5.329s.324-3.62.273-5.462v-3.465Z"/>
        <path id="Caminho_40" data-name="Caminho 40" d="M897.535,954.537v10.028a7.836,7.836,0,0,1,9.3-2.289,5.347,5.347,0,0,1,2.185,1.712,6.2,6.2,0,0,1,1.005,2.308,20.606,20.606,0,0,1,.27,3.926v11.589H905.07V971.375a15.463,15.463,0,0,0-.3-3.944,2.588,2.588,0,0,0-1.051-1.33,3.372,3.372,0,0,0-1.888-.495,4.34,4.34,0,0,0-2.326.633,3.662,3.662,0,0,0-1.5,1.907,11.439,11.439,0,0,0-.474,3.768v9.9h-5.228V954.537Z"/>
      </g>
    </g>
  </g>
</svg>
