<svg xmlns="http://www.w3.org/2000/svg" xmlns:xlink="http://www.w3.org/1999/xlink" width="167.18" height="138.8" viewBox="0 0 167.18 138.8">
  <defs>
    <clipPath id="clip-path">
      <rect id="Retângulo_4" data-name="Retângulo 4" width="167.18" height="138.8" transform="translate(1251.38 906.9)"/>
    </clipPath>
  </defs>
  <g id="Grupo_12" data-name="Grupo 12" transform="translate(-1251.38 -906.9)">
    <g id="Grupo_11" data-name="Grupo 11">
      <g id="Grupo_10" data-name="Grupo 10" clip-path="url(#clip-path)">
        <path id="Caminho_61" data-name="Caminho 61" d="M1294.1,963.18V968.1a74.753,74.753,0,0,1-1.5,14.918l-12.774,62.689h-22.246l15.91-73.49h-22.108v-16.1h35.657a7.065,7.065,0,0,1,7.065,7.064"/>
        <path id="Caminho_62" data-name="Caminho 62" d="M1347.279,1030.437v15.273h-49.2l.014-12.783q21.858-35.748,25.982-44.244t4.123-13.254a9.633,9.633,0,0,0-1.248-5.451,4.309,4.309,0,0,0-3.8-1.8,4.171,4.171,0,0,0-3.795,1.991q-1.248,1.992-1.247,7.914v8.523h-20.033v-3.266a71.13,71.13,0,0,1,.774-11.87,20.839,20.839,0,0,1,3.819-8.55,19.178,19.178,0,0,1,7.913-6.364,28.7,28.7,0,0,1,11.678-2.158q13.336,0,20.17,6.613a22.3,22.3,0,0,1,6.834,16.74,39.824,39.824,0,0,1-3.846,16.27q-3.846,8.58-22.663,36.414Z"/>
        <path id="Caminho_63" data-name="Caminho 63" d="M1384.137,1007.423l1.62-2.089.977.783-1.722,2.007Z"/>
        <path id="Caminho_64" data-name="Caminho 64" d="M1388.639,1000.968l2.474-4.741,1.567.849-2.707,4.617Z"/>
        <path id="Caminho_65" data-name="Caminho 65" d="M1393.021,991.41l1.45-5.148,2.216.663-1.7,5.073Z"/>
        <path id="Caminho_66" data-name="Caminho 66" d="M1395.344,981.188l.367-5.338,2.833.241-.631,5.316Z"/>
        <path id="Caminho_67" data-name="Caminho 67" d="M1395.54,970.739l-.717-5.306,3.35-.4.454,5.337Z"/>
        <path id="Caminho_68" data-name="Caminho 68" d="M1393.626,960.5l-1.789-5.044,3.7-1.244,1.537,5.129Z"/>
        <path id="Caminho_69" data-name="Caminho 69" d="M1389.668,950.908l-2.783-4.569,3.825-2.245,2.554,4.705Z"/>
        <path id="Caminho_70" data-name="Caminho 70" d="M1383.854,942.354l-3.652-3.907,3.682-3.33,3.456,4.086Z"/>
        <path id="Caminho_71" data-name="Caminho 71" d="M1376.454,935.185l-4.368-3.087,3.244-4.435,4.212,3.3Z"/>
        <path id="Caminho_72" data-name="Caminho 72" d="M1367.786,929.685l-4.906-2.132,2.491-5.486,4.8,2.373Z"/>
        <path id="Caminho_73" data-name="Caminho 73" d="M1358.214,926.082l-5.24-1.079,1.428-6.4,5.182,1.339Z"/>
        <path id="Caminho_74" data-name="Caminho 74" d="M1348.09,924.521l-2.676-.044-.5-.008-.244,0h.065l-.06,0-.119,0-.856.03-.836.028-.126-7.085.837.013.857.013.467.008.244.017.5.032,2.672.177Z"/>
        <path id="Caminho_75" data-name="Caminho 75" d="M1337.976,925.031l-5.24,1.091-1.432-7.481,5.291-.83Z"/>
        <path id="Caminho_76" data-name="Caminho 76" d="M1328.176,927.584l-4.9,2.144-3.14-7.519,5.006-1.9Z"/>
        <path id="Caminho_77" data-name="Caminho 77" d="M1319.138,932.076l-4.363,3.1-4.909-7.156,4.513-2.881Z"/>
        <path id="Caminho_78" data-name="Caminho 78" d="M1311.154,938.373l-6.291-6.354-3.317,3.051,6.487,6.487,1.27-1.295,0,0Z"/>
        <path id="Caminho_79" data-name="Caminho 79" d="M1418.548,977.174l-.009-.505-.014-.157-.028-.318-.111-1.272q-.223-2.548-.451-5.14l-1.058-5.863a46.379,46.379,0,0,0-1.467-5.648c-.274-.923-.549-1.852-.824-2.781-.3-.92-.705-1.806-1.055-2.712l-1.1-2.705a21.312,21.312,0,0,0-1.206-2.659q-1.361-2.586-2.726-5.185-1.6-2.451-3.211-4.91a21.556,21.556,0,0,0-1.741-2.355l-1.834-2.282a70.575,70.575,0,0,0-37.707-23.694l-5.183-1.116c-1.729-.259-3.457-.41-5.152-.612-.849-.08-1.688-.222-2.53-.248l-2.516-.031c-1.683,0-3.263-.078-4.96,0a71.778,71.778,0,0,0-9.29,1.077c-1.495.233-2.935.631-4.359.929-1.4.4-2.789.744-4.117,1.181a67.512,67.512,0,0,0-13.829,6.2,71.817,71.817,0,0,0-9.461,6.706c-2.421,2.1-4.213,3.865-5.383,5.111l-1.775,1.925s.674-.612,1.938-1.756,3.206-2.717,5.77-4.57a70.142,70.142,0,0,1,9.817-5.712,68.369,68.369,0,0,1,13.775-4.8c1.294-.314,2.639-.532,3.993-.8,1.374-.171,2.756-.436,4.184-.537,1.426-.137,2.872-.261,4.312-.281,1.412-.086,2.986-.03,4.546-.01,1.427.058,3.01.263,4.53.388l2.319.213c.774.088,1.54.287,2.315.426,1.545.319,3.113.582,4.672.946l4.638,1.41a67.874,67.874,0,0,1,17.618,9.138,66.386,66.386,0,0,1,14.084,14.509l1.432,2.086a16.715,16.715,0,0,1,1.346,2.134l2.436,4.4q.992,2.3,1.98,4.584a15.823,15.823,0,0,1,.85,2.326l.752,2.349c.238.784.535,1.547.724,2.34l.506,2.386a35.819,35.819,0,0,1,.856,4.67q.26,2.254.516,4.478.034,2.6.069,5.159l.017,1.277,0,.318,0,.159c-.018-.638-.008-.136-.014-.26l0,.074-.045.573q-.087,1.141-.173,2.274c-.058,1.514-.377,2.986-.557,4.448s-.59,2.875-.857,4.285c-.295,1.4-.771,2.75-1.129,4.095a59.1,59.1,0,0,1-6.606,14.144,64.365,64.365,0,0,1-8.173,10.223q-1.052,1.008-2.034,1.953c-.648.632-1.354,1.156-1.984,1.709-1.031.922-2.074,1.672-3.032,2.375l-4.9-7.226-9.474,28.1,29.608,1.612-5.378-7.935c.087-.074.169-.143.257-.215,1.37-1.166,2.919-2.413,4.442-3.951.766-.761,1.61-1.505,2.393-2.371l2.434-2.674a76.712,76.712,0,0,0,9.451-13.7,74.133,74.133,0,0,0,6.922-18.276c.334-1.7.772-3.4,1.014-5.155.215-1.762.566-3.522.657-5.329s.324-3.622.273-5.463v-3.465Z"/>
        <path id="Caminho_80" data-name="Caminho 80" d="M1363.756,954.585v10.027a7.831,7.831,0,0,1,9.3-2.288,5.328,5.328,0,0,1,2.186,1.712,6.2,6.2,0,0,1,1.005,2.308,20.6,20.6,0,0,1,.27,3.925v11.589h-5.228V971.423a15.476,15.476,0,0,0-.3-3.944,2.6,2.6,0,0,0-1.051-1.331,3.381,3.381,0,0,0-1.889-.494,4.33,4.33,0,0,0-2.325.633,3.664,3.664,0,0,0-1.5,1.906,11.439,11.439,0,0,0-.474,3.769v9.9h-5.228V954.585Z"/>
      </g>
    </g>
  </g>
</svg>
