<svg xmlns="http://www.w3.org/2000/svg" width="172.206" height="172.207" viewBox="0 0 172.206 172.207">
  <g id="Grupo_17" data-name="Grupo 17" transform="translate(-248.763 -2012.086)">
    <path id="Caminho_81" data-name="Caminho 81" d="M420.969,2098.188a86.1,86.1,0,1,1-86.1-86.1,86.1,86.1,0,0,1,86.1,86.1" fill="#fff"/>
    <path id="Caminho_82" data-name="Caminho 82" d="M382.344,2067.25a4.211,4.211,0,0,0-2.538-.852h-89.88a4.211,4.211,0,0,0-2.538.852l47.478,28.815Z" fill="#003660"/>
    <path id="Caminho_83" data-name="Caminho 83" d="M334.869,2099.624l0,0,0,0-48.834-29.639a4.2,4.2,0,0,0-.335,1.645v54.118a4.244,4.244,0,0,0,4.232,4.231h89.879a4.244,4.244,0,0,0,4.232-4.231V2071.63a4.2,4.2,0,0,0-.335-1.645Z" fill="#003660"/>
  </g>
</svg>
